HIERARCHY
ROOT Hips
{
	OFFSET 0.000000 71.427986 0.000000
	CHANNELS 6 Xposition Yposition Zposition Xrotation Yrotation Zrotation
	JOINT Pelvis
	{
		OFFSET 0.000000 0.000000 0.000000
		CHANNELS 3 Xrotation Yrotation Zrotation
		JOINT LeftUpLeg
		{
			OFFSET 6.797100 -2.508499 -1.318700
			CHANNELS 3 Xrotation Yrotation Zrotation
			JOINT LeftLeg
			{
				OFFSET 0.069008 -29.241863 0.690200
				CHANNELS 3 Xrotation Yrotation Zrotation
				JOINT LeftFoot
				{
					OFFSET -0.069008 -29.568123 -0.266800
					CHANNELS 3 Xrotation Yrotation Zrotation
					JOINT LeftToeBase
					{
						OFFSET 3.145500 -8.631000 16.059900
						CHANNELS 3 Xrotation Yrotation Zrotation
						End Site
						{
							OFFSET 0.000000 18.501587 0.000000
						}
					}
				}
			}
			JOINT Left_ShortSleeve
			{
				OFFSET 0.265923 -10.480953 1.153800
				CHANNELS 3 Xrotation Yrotation Zrotation
				End Site
				{
					OFFSET 1.725763 19.823879 0.000000
				}
			}
		}
		JOINT RightUpLeg
		{
			OFFSET -6.797100 -2.508499 -1.318700
			CHANNELS 3 Xrotation Yrotation Zrotation
			JOINT RightLeg
			{
				OFFSET -0.082453 -29.241932 0.688000
				CHANNELS 3 Xrotation Yrotation Zrotation
				JOINT RightFoot
				{
					OFFSET 0.082453 -29.568058 -0.264600
					CHANNELS 3 Xrotation Yrotation Zrotation
					JOINT RightToeBase
					{
						OFFSET -3.115300 -8.682800 16.113400
						CHANNELS 3 Xrotation Yrotation Zrotation
						End Site
						{
							OFFSET 0.000000 18.567114 0.000000
						}
					}
				}
			}
			JOINT Right_ShortSleeve
			{
				OFFSET -0.265923 -10.480953 1.153800
				CHANNELS 3 Xrotation Yrotation Zrotation
				End Site
				{
					OFFSET -1.725766 19.823910 0.000000
				}
			}
		}
	}
	JOINT Spine
	{
		OFFSET 0.000000 13.368103 0.470500
		CHANNELS 3 Xrotation Yrotation Zrotation
		JOINT Spine1
		{
			OFFSET 0.147000 13.837402 0.538800
			CHANNELS 3 Xrotation Yrotation Zrotation
			JOINT Spine2
			{
				OFFSET 0.168000 16.242897 -1.435500
				CHANNELS 3 Xrotation Yrotation Zrotation
				JOINT Neck
				{
					OFFSET 0.217200 18.631500 -1.679100
					CHANNELS 3 Xrotation Yrotation Zrotation
					JOINT Head
					{
						OFFSET 0.000000 6.599396 1.385900
						CHANNELS 3 Xrotation Yrotation Zrotation
						JOINT Hat
						{
							OFFSET -0.532200 27.220596 -10.096100
							CHANNELS 3 Xrotation Yrotation Zrotation
							End Site
							{
								OFFSET 0.000000 22.029861 0.000000
							}
						}
						JOINT HairD
						{
							OFFSET -10.777400 17.437393 -1.325900
							CHANNELS 3 Xrotation Yrotation Zrotation
							JOINT HairD1
							{
								OFFSET -3.290299 -11.051193 1.062200
								CHANNELS 3 Xrotation Yrotation Zrotation
								End Site
								{
									OFFSET 0.000000 11.579437 0.000000
								}
							}
						}
						JOINT HairB
						{
							OFFSET -10.777400 17.437393 1.467900
							CHANNELS 3 Xrotation Yrotation Zrotation
							JOINT HairB1
							{
								OFFSET -1.561200 -12.956299 3.590200
								CHANNELS 3 Xrotation Yrotation Zrotation
								End Site
								{
									OFFSET 0.000000 13.534866 0.000000
								}
							}
						}
						JOINT HairA
						{
							OFFSET 9.713100 17.437393 1.467900
							CHANNELS 3 Xrotation Yrotation Zrotation
							JOINT HairA1
							{
								OFFSET 1.561200 -12.956299 3.590200
								CHANNELS 3 Xrotation Yrotation Zrotation
								End Site
								{
									OFFSET 0.000000 13.534866 0.000000
								}
							}
						}
						JOINT HairC
						{
							OFFSET 9.713100 17.437393 -1.325900
							CHANNELS 3 Xrotation Yrotation Zrotation
							JOINT HairC1
							{
								OFFSET 3.290300 -11.051193 1.062200
								CHANNELS 3 Xrotation Yrotation Zrotation
								End Site
								{
									OFFSET 0.000000 11.579437 0.000000
								}
							}
						}
					}
				}
				JOINT LeftShoulder
				{
					OFFSET 5.101800 15.108002 -2.763700
					CHANNELS 3 Xrotation Yrotation Zrotation
					JOINT LeftArm
					{
						OFFSET 9.825497 2.506317 -1.597400
						CHANNELS 3 Xrotation Yrotation Zrotation
						JOINT LeftForeArm
						{
							OFFSET 21.966244 0.000000 0.000000
							CHANNELS 3 Xrotation Yrotation Zrotation
							JOINT LeftHand
							{
								OFFSET 33.879036 0.000000 0.000000
								CHANNELS 3 Xrotation Yrotation Zrotation
								JOINT LeftHandThumb1
								{
									OFFSET 6.715286 -2.359680 3.363841
									CHANNELS 3 Xrotation Yrotation Zrotation
									JOINT LeftHandThumb2
									{
										OFFSET 2.507072 -1.447464 1.447461
										CHANNELS 3 Xrotation Yrotation Zrotation
										JOINT LeftHandThumb3
										{
											OFFSET 2.898338 -1.673355 1.673357
											CHANNELS 3 Xrotation Yrotation Zrotation
											End Site
											{
												OFFSET -0.295959 3.727692 -0.131651
											}
										}
									}
								}
								JOINT LeftHandIndex1
								{
									OFFSET 14.190811 -0.254547 3.840278
									CHANNELS 3 Xrotation Yrotation Zrotation
									JOINT LeftHandIndex2
									{
										OFFSET 3.551727 0.000000 -0.000000
										CHANNELS 3 Xrotation Yrotation Zrotation
										JOINT LeftHandIndex3
										{
											OFFSET 2.894196 0.000000 0.000000
											CHANNELS 3 Xrotation Yrotation Zrotation
											End Site
											{
												OFFSET -1.000603 2.690872 0.366626
											}
										}
									}
								}
								JOINT LeftHandMiddle1
								{
									OFFSET 13.776489 0.000000 0.000000
									CHANNELS 3 Xrotation Yrotation Zrotation
									JOINT LeftHandMiddle2
									{
										OFFSET 3.438232 0.000000 0.000000
										CHANNELS 3 Xrotation Yrotation Zrotation
										JOINT LeftHandMiddle3
										{
											OFFSET 3.691551 0.000000 0.000000
											CHANNELS 3 Xrotation Yrotation Zrotation
											End Site
											{
												OFFSET -1.082298 3.499527 0.457670
											}
										}
									}
								}
								JOINT LeftHandRing1
								{
									OFFSET 13.966164 -0.268127 -3.067488
									CHANNELS 3 Xrotation Yrotation Zrotation
									JOINT LeftHandRing2
									{
										OFFSET 3.162567 0.000000 0.000000
										CHANNELS 3 Xrotation Yrotation Zrotation
										JOINT LeftHandRing3
										{
											OFFSET 3.324348 0.000000 0.000000
											CHANNELS 3 Xrotation Yrotation Zrotation
											End Site
											{
												OFFSET -0.861900 3.184998 0.405154
											}
										}
									}
								}
								JOINT LeftHandPinky1
								{
									OFFSET 13.131393 -0.168503 -5.746925
									CHANNELS 3 Xrotation Yrotation Zrotation
									JOINT LeftHandPinky2
									{
										OFFSET 2.849182 0.000000 0.000000
										CHANNELS 3 Xrotation Yrotation Zrotation
										JOINT LeftHandPinky3
										{
											OFFSET 2.805038 0.000000 0.000000
											CHANNELS 3 Xrotation Yrotation Zrotation
											End Site
											{
												OFFSET -0.882500 2.642609 0.325652
											}
										}
									}
								}
							}
							JOINT Left_Sleeve
							{
								OFFSET 6.592125 -0.646545 0.805568
								CHANNELS 3 Xrotation Yrotation Zrotation
								End Site
								{
									OFFSET -0.000179 20.275787 -0.000000
								}
							}
						}
					}
				}
				JOINT RightShoulder
				{
					OFFSET -5.731700 15.108002 -2.763700
					CHANNELS 3 Xrotation Yrotation Zrotation
					JOINT RightArm
					{
						OFFSET -9.825497 2.506317 -1.597400
						CHANNELS 3 Xrotation Yrotation Zrotation
						JOINT RightForeArm
						{
							OFFSET -21.966242 0.000000 0.000000
							CHANNELS 3 Xrotation Yrotation Zrotation
							JOINT RightHand
							{
								OFFSET -33.879032 0.000000 0.000000
								CHANNELS 3 Xrotation Yrotation Zrotation
								JOINT RightHandThumb1
								{
									OFFSET -6.715286 -2.359680 3.363841
									CHANNELS 3 Xrotation Yrotation Zrotation
									JOINT RightHandThumb2
									{
										OFFSET -2.507072 -1.447464 1.447461
										CHANNELS 3 Xrotation Yrotation Zrotation
										JOINT RightHandThumb3
										{
											OFFSET -2.898338 -1.673355 1.673357
											CHANNELS 3 Xrotation Yrotation Zrotation
											End Site
											{
												OFFSET 0.295959 3.727692 -0.131651
											}
										}
									}
								}
								JOINT RightHandIndex1
								{
									OFFSET -14.190811 -0.254547 3.840278
									CHANNELS 3 Xrotation Yrotation Zrotation
									JOINT RightHandIndex2
									{
										OFFSET -3.551727 0.000000 -0.000000
										CHANNELS 3 Xrotation Yrotation Zrotation
										JOINT RightHandIndex3
										{
											OFFSET -2.894196 0.000000 0.000000
											CHANNELS 3 Xrotation Yrotation Zrotation
											End Site
											{
												OFFSET 1.000603 2.690872 0.366626
											}
										}
									}
								}
								JOINT RightHandMiddle1
								{
									OFFSET -13.776489 0.000000 0.000000
									CHANNELS 3 Xrotation Yrotation Zrotation
									JOINT RightHandMiddle2
									{
										OFFSET -3.438232 0.000000 0.000000
										CHANNELS 3 Xrotation Yrotation Zrotation
										JOINT RightHandMiddle3
										{
											OFFSET -3.691551 0.000000 0.000000
											CHANNELS 3 Xrotation Yrotation Zrotation
											End Site
											{
												OFFSET 1.082298 3.499527 0.457670
											}
										}
									}
								}
								JOINT RightHandRing1
								{
									OFFSET -13.966164 -0.268127 -3.067488
									CHANNELS 3 Xrotation Yrotation Zrotation
									JOINT RightHandRing2
									{
										OFFSET -3.162567 0.000000 0.000000
										CHANNELS 3 Xrotation Yrotation Zrotation
										JOINT RightHandRing3
										{
											OFFSET -3.324348 0.000000 0.000000
											CHANNELS 3 Xrotation Yrotation Zrotation
											End Site
											{
												OFFSET 0.861900 3.184998 0.405154
											}
										}
									}
								}
								JOINT RightHandPinky1
								{
									OFFSET -13.131393 -0.168503 -5.746925
									CHANNELS 3 Xrotation Yrotation Zrotation
									JOINT RightHandPinky2
									{
										OFFSET -2.849182 0.000000 0.000000
										CHANNELS 3 Xrotation Yrotation Zrotation
										JOINT RightHandPinky3
										{
											OFFSET -2.805038 0.000000 0.000000
											CHANNELS 3 Xrotation Yrotation Zrotation
											End Site
											{
												OFFSET 0.882500 2.642609 0.325652
											}
										}
									}
								}
							}
							JOINT Right_Sleeve
							{
								OFFSET -6.592125 -0.646545 0.805568
								CHANNELS 3 Xrotation Yrotation Zrotation
								End Site
								{
									OFFSET 0.000179 20.275787 -0.000000
								}
							}
						}
					}
				}
				JOINT Bind_Right_JacketString
				{
					OFFSET -3.534800 11.969597 7.200700
					CHANNELS 3 Xrotation Yrotation Zrotation
					JOINT Bind_Right_JacketString1
					{
						OFFSET -0.319900 -6.102600 2.794100
						CHANNELS 3 Xrotation Yrotation Zrotation
						End Site
						{
							OFFSET 0.000000 6.719452 0.000000
						}
					}
				}
				JOINT Bind_Left_JacketString
				{
					OFFSET 2.904800 11.969597 7.200700
					CHANNELS 3 Xrotation Yrotation Zrotation
					JOINT Bind_Left_JacketString1
					{
						OFFSET 0.364800 -5.904503 3.186800
						CHANNELS 3 Xrotation Yrotation Zrotation
						End Site
						{
							OFFSET 0.000000 6.719513 0.000000
						}
					}
				}
				JOINT HairE
				{
					OFFSET 5.915200 17.612701 -11.592200
					CHANNELS 3 Xrotation Yrotation Zrotation
					JOINT HairE1
					{
						OFFSET 0.289200 -7.171898 -1.284500
						CHANNELS 3 Xrotation Yrotation Zrotation
						End Site
						{
							OFFSET 0.000000 7.291756 0.000000
						}
					}
				}
				JOINT HairF
				{
					OFFSET -0.864800 17.612701 -11.592200
					CHANNELS 3 Xrotation Yrotation Zrotation
					JOINT HairF1
					{
						OFFSET 0.000000 -14.087097 -2.127501
						CHANNELS 3 Xrotation Yrotation Zrotation
						End Site
						{
							OFFSET 0.000000 14.246841 0.000000
						}
					}
				}
				JOINT HairG
				{
					OFFSET -8.087700 17.612701 -11.592200
					CHANNELS 3 Xrotation Yrotation Zrotation
					JOINT HairG1
					{
						OFFSET -0.293600 -6.081398 -0.910100
						CHANNELS 3 Xrotation Yrotation Zrotation
						End Site
						{
							OFFSET 0.000000 6.156120 0.000000
						}
					}
				}
			}
		}
	}
	JOINT Pouch
	{
		OFFSET 0.000000 4.394501 10.847300
		CHANNELS 3 Xrotation Yrotation Zrotation
		End Site
		{
			OFFSET 0.000000 21.880577 0.000000
		}
	}
	JOINT Bag
	{
		OFFSET -13.229000 4.813004 -0.593300
		CHANNELS 3 Xrotation Yrotation Zrotation
		End Site
		{
			OFFSET 0.000000 21.880577 0.000000
		}
	}
	JOINT OccupyGuyFacialAnim_Joint
	{
		OFFSET 1.000000 -70.206398 -1.655000
		CHANNELS 3 Xrotation Yrotation Zrotation
		End Site
		{
			OFFSET 0.000000 21.880577 0.000000
		}
	}
}
MOTION
Frames: 4
Frame Time: 0.016667
4.227636 55.706802 97.411903 8.426921 -20.561526 1.549407 0.000001 -0.000001 -0.000000 17.031615 32.863742 10.340156 46.234930 20.775808 -6.956871 -35.084165 -2.139191 -29.574183 -0.000000 -0.000003 0.000000 0.000002 -0.000000 0.000001 -68.129313 -6.858786 -8.945358 66.172457 4.612933 -7.804110 -7.291545 7.336198 5.599772 -0.000000 -0.000000 0.000000 -0.000000 0.000001 -0.000000 2.359850 -3.494273 1.041799 4.820221 -8.149186 2.085947 4.820152 -8.149136 2.085948 9.532182 2.585898 14.901480 -2.611315 9.939550 -20.211633 0.000002 0.000001 -0.000001 0.000002 0.000001 -0.000001 0.000002 0.000001 -0.000000 0.000002 0.000001 -0.000001 -0.000000 0.000001 -0.000001 0.000002 0.000001 -0.000001 -0.000000 0.000001 -0.000001 0.000002 0.000001 -0.000001 0.000002 0.000001 -0.000001 -4.481866 -16.524611 -19.193554 -50.218256 -13.065776 -29.545336 -9.513734 -45.265105 18.313341 -90.641303 -9.142712 11.811205 18.604730 9.201158 -20.335722 9.366559 23.517113 3.907243 0.000004 0.000001 0.000001 5.062917 7.259555 -60.393489 0.009012 -4.396079 -76.234740 -0.000000 -0.000000 0.000001 -0.063973 4.758036 -60.986814 -0.080434 -4.896948 -84.974356 0.000001 0.000001 -0.000003 -0.034421 -0.057043 -61.362269 -0.169936 -1.351956 -91.625396 -0.000002 0.000002 -0.000005 -4.255088 -2.157303 -63.603179 -0.059600 -0.064776 -85.011075 0.000001 -0.000001 -0.000001 0.000004 0.000001 0.000000 0.026763 -1.767822 1.230268 -18.293040 31.587309 8.179656 40.535192 8.128189 -4.683266 -43.424707 -46.363713 -11.839835 15.959772 -4.187804 29.032211 -14.791932 -41.235488 -16.515532 -0.000001 -0.000001 0.000001 5.358223 -4.863598 67.585050 0.006242 4.394853 68.693425 -0.000000 0.000001 0.000000 -0.076810 -4.752210 70.834888 -0.076443 4.897918 82.216346 0.000000 0.000000 0.000001 -1.164543 -6.475297 73.357488 -0.172065 1.351233 92.834374 -0.000000 0.000001 -0.000001 -5.344939 -12.802406 81.125224 -0.058401 0.065314 84.696005 -0.000001 0.000000 -0.000001 0.000001 0.000000 0.000000 0.000000 -0.000000 0.000001 0.000002 -0.000002 -0.000000 0.000000 -0.000000 -0.000000 0.000000 -0.000000 -0.000000 0.000000 -0.000000 0.000001 0.000002 -0.000002 0.000000 0.000000 -0.000000 -0.000000 0.000000 -0.000000 -0.000000 0.000000 -0.000000 0.000001 0.000002 -0.000002 0.000000 0.000001 -0.000001 -0.000000 0.000001 -0.000001 -0.000000 0.000001 -0.000001 -0.000000 
3.740852 55.880096 99.097115 10.280849 -19.584857 0.989048 -0.000001 -0.000000 -0.000000 16.896542 34.009650 11.578399 43.464578 22.767295 -7.355936 -32.064053 -3.213924 -30.061192 0.000000 -0.000001 0.000000 -0.000001 0.000000 0.000001 -68.618580 -8.244184 -9.595577 67.845608 5.712982 -7.795646 -10.130532 6.080902 5.542161 -0.000000 0.000002 0.000000 -0.000005 -0.000001 -0.000002 2.373798 -4.525139 1.367517 4.899755 -10.154803 2.662428 4.899738 -10.154734 2.662412 8.502570 4.160252 15.381258 -1.540127 11.907272 -20.331214 -0.000000 -0.000000 -0.000001 -0.000000 -0.000000 -0.000001 -0.000000 -0.000000 -0.000000 -0.000000 -0.000000 -0.000001 -0.000002 0.000001 -0.000001 -0.000000 -0.000000 -0.000001 -0.000002 0.000001 -0.000001 -0.000000 -0.000000 -0.000001 -0.000000 -0.000000 -0.000001 -5.170233 -18.664289 -18.158321 -46.432808 -18.052728 -34.485594 -9.204859 -38.217033 16.317061 -98.519953 2.929862 8.071401 18.604733 9.201160 -20.335724 9.366557 23.517113 3.907238 0.000003 0.000002 0.000000 5.062918 7.259559 -60.393489 0.009011 -4.396083 -76.234740 0.000002 0.000000 0.000002 -0.063977 4.758037 -60.986814 -0.080438 -4.896944 -84.974356 0.000002 0.000001 0.000001 -0.034416 -0.057043 -61.362269 -0.169936 -1.351954 -91.625389 -0.000000 -0.000001 0.000002 -4.255085 -2.157307 -63.603172 -0.059601 -0.064778 -85.011082 0.000000 -0.000001 -0.000001 -0.000003 0.000000 0.000000 0.248736 -2.144201 4.457618 -14.470980 21.706649 4.671656 37.782243 8.308577 -4.381095 -41.885134 -47.673675 -10.025585 15.959770 -4.187805 29.032211 -14.791939 -41.235491 -16.515536 0.000000 -0.000001 0.000000 5.358226 -4.863599 67.585050 0.006245 4.394856 68.693419 -0.000000 -0.000001 -0.000002 -0.076811 -4.752209 70.834888 -0.076440 4.897915 82.216346 0.000002 0.000001 -0.000001 -1.164541 -6.475290 73.357488 -0.172063 1.351232 92.834374 0.000000 0.000000 -0.000004 -5.344937 -12.802408 81.125230 -0.058396 0.065311 84.696012 -0.000000 0.000001 0.000001 0.000001 -0.000001 -0.000000 0.000002 -0.000001 0.000000 0.000002 -0.000003 0.000001 0.000002 -0.000001 -0.000000 0.000002 -0.000001 -0.000000 0.000002 -0.000001 0.000000 0.000002 -0.000003 0.000001 0.000002 -0.000001 -0.000000 0.000002 -0.000001 -0.000000 0.000002 -0.000001 0.000000 0.000002 -0.000003 0.000001 -0.000001 -0.000000 -0.000000 -0.000001 -0.000000 -0.000000 -0.000001 -0.000000 -0.000000 
3.215811 56.107803 100.906624 12.007523 -18.488583 0.406937 -0.000001 -0.000001 0.000000 16.275999 34.927415 13.321502 41.490821 24.997847 -7.951102 -27.818397 -4.443916 -30.617894 -0.000002 0.000003 -0.000001 -0.000000 -0.000000 0.000001 -68.592393 -9.288207 -10.118034 69.368269 7.189578 -7.748030 -13.113931 4.085780 5.451977 -0.000000 0.000001 -0.000000 0.000003 0.000002 0.000002 2.385010 -5.445774 1.587665 4.960982 -11.924861 3.021995 4.961001 -11.924945 3.022034 7.327449 5.709597 15.847442 -0.541799 13.761529 -20.423748 0.000002 0.000001 -0.000000 0.000002 0.000001 -0.000000 0.000002 0.000001 0.000000 0.000002 0.000001 -0.000000 0.000000 -0.000001 -0.000000 0.000002 0.000001 -0.000000 0.000000 -0.000001 -0.000000 0.000002 0.000001 -0.000000 0.000002 0.000001 -0.000000 -5.400960 -20.399535 -16.650063 -43.348451 -23.388166 -38.897910 -9.093639 -31.903827 14.184706 -106.152403 14.962516 7.623540 18.604732 9.201154 -20.335717 9.366561 23.517113 3.907244 0.000003 -0.000000 0.000002 5.062916 7.259555 -60.393482 0.009012 -4.396079 -76.234747 0.000001 0.000001 -0.000000 -0.063977 4.758028 -60.986814 -0.080434 -4.896948 -84.974356 0.000003 0.000001 0.000001 -0.034421 -0.057053 -61.362262 -0.169935 -1.351959 -91.625396 0.000003 0.000002 -0.000000 -4.255087 -2.157312 -63.603172 -0.059600 -0.064776 -85.011082 0.000001 -0.000000 -0.000001 0.000001 -0.000000 0.000000 0.440956 -2.570725 6.867597 -12.839515 16.555918 3.599490 34.933648 8.728770 -3.601189 -39.383680 -54.979932 -8.524783 15.959772 -4.187804 29.032211 -14.791943 -41.235488 -16.515537 0.000004 -0.000001 0.000000 5.358225 -4.863601 67.585050 0.006249 4.394854 68.693419 -0.000001 -0.000000 0.000000 -0.076810 -4.752209 70.834881 -0.076443 4.897914 82.216339 -0.000000 -0.000001 -0.000003 -1.164541 -6.475292 73.357482 -0.172062 1.351233 92.834374 0.000000 -0.000001 -0.000000 -5.344935 -12.802408 81.125230 -0.058399 0.065311 84.696012 0.000001 0.000001 -0.000001 0.000003 0.000002 -0.000001 -0.000000 0.000001 0.000000 -0.000001 -0.000003 0.000000 -0.000000 0.000001 -0.000001 -0.000000 0.000001 -0.000001 -0.000000 0.000001 0.000000 -0.000001 -0.000003 0.000000 -0.000000 0.000001 -0.000001 -0.000000 0.000001 -0.000001 -0.000000 0.000001 0.000000 -0.000001 -0.000003 0.000000 -0.000001 -0.000001 0.000000 -0.000001 -0.000001 0.000000 -0.000001 -0.000001 0.000000 
2.709631 56.312569 102.518906 13.053932 -18.747734 -0.164291 0.000000 0.000000 0.000000 15.743284 35.600312 15.030443 41.007906 27.133876 -8.377032 -22.034733 -5.825395 -32.379441 0.000001 -0.000000 -0.000002 -0.000000 0.000001 0.000001 -67.833348 -9.774884 -9.378612 70.168350 7.045090 -7.791242 -15.528237 3.771341 5.655029 -0.000000 0.000001 0.000000 0.000001 -0.000000 -0.000001 2.393940 -6.183515 1.764500 5.005443 -13.331999 3.278268 5.005470 -13.331915 3.278243 6.051138 7.224978 16.300549 0.372244 15.500520 -20.487830 0.000002 -0.000003 0.000000 0.000002 -0.000003 0.000000 0.000002 -0.000003 0.000001 0.000002 -0.000003 0.000000 0.000000 -0.000001 0.000000 0.000002 -0.000003 0.000000 0.000000 -0.000001 0.000000 0.000002 -0.000003 0.000000 0.000002 -0.000003 0.000000 -5.462529 -21.822323 -15.277255 -41.539841 -28.186671 -42.662673 -9.093017 -26.803751 12.045800 -113.642723 25.261567 10.199945 18.604733 9.201160 -20.335715 9.366556 23.517111 3.907242 0.000000 0.000001 0.000002 5.062914 7.259558 -60.393489 0.009012 -4.396078 -76.234747 0.000002 -0.000001 -0.000000 -0.063978 4.758036 -60.986814 -0.080434 -4.896943 -84.974356 0.000001 0.000001 0.000003 -0.034420 -0.057038 -61.362269 -0.169936 -1.351956 -91.625396 0.000002 0.000002 -0.000002 -4.255089 -2.157304 -63.603172 -0.059606 -0.064773 -85.011082 -0.000001 -0.000002 0.000001 0.000001 -0.000001 -0.000005 0.571908 -3.041700 8.393505 -12.235269 14.739610 3.552606 31.986903 9.211499 -2.529604 -37.140274 -64.951165 -8.983998 15.959768 -4.187803 29.032214 -14.791941 -41.235495 -16.515536 -0.000002 0.000000 0.000001 5.358219 -4.863600 67.585043 0.006248 4.394854 68.693419 0.000001 -0.000000 0.000000 -0.076812 -4.752209 70.834881 -0.076442 4.897914 82.216346 0.000000 0.000001 -0.000001 -1.164544 -6.475292 73.357482 -0.172061 1.351233 92.834367 -0.000001 -0.000002 0.000001 -5.344938 -12.802410 81.125230 -0.058398 0.065310 84.696005 -0.000000 0.000000 0.000002 -0.000002 -0.000003 0.000001 0.000002 -0.000002 0.000000 0.000002 -0.000002 0.000000 0.000002 -0.000002 -0.000000 0.000002 -0.000002 -0.000000 0.000002 -0.000002 0.000000 0.000002 -0.000002 0.000000 0.000002 -0.000002 -0.000000 0.000002 -0.000002 -0.000000 0.000002 -0.000002 0.000000 0.000002 -0.000002 0.000000 0.000000 0.000000 0.000000 0.000000 0.000000 0.000000 0.000000 0.000000 0.000000 
